<?xml version="1.0" encoding="UTF-8" standalone="no"?>
<svg
   width="22.424438pt"
   height="48.28949pt"
   viewBox="0 0 22.424439 48.28949"
   version="1.2"
   id="svg2158"
   sodipodi:docname="logo libere ta plume(1).ai"
   xmlns:inkscape="http://www.inkscape.org/namespaces/inkscape"
   xmlns:sodipodi="http://sodipodi.sourceforge.net/DTD/sodipodi-0.dtd"
   xmlns="http://www.w3.org/2000/svg"
   xmlns:svg="http://www.w3.org/2000/svg">
  <sodipodi:namedview
     id="namedview2160"
     pagecolor="#ffffff"
     bordercolor="#000000"
     borderopacity="0.25"
     inkscape:showpageshadow="2"
     inkscape:pageopacity="0.0"
     inkscape:pagecheckerboard="0"
     inkscape:deskcolor="#d1d1d1"
     inkscape:document-units="pt"
     showgrid="false" />
  <defs
     id="defs1863" />
  <g
     id="surface22048"
     transform="translate(-176.41628,-163.73005)">
    <path
       style="fill:#000000;fill-opacity:1;fill-rule:nonzero;stroke:none"
       d="m 192.21484,181.33594 c -0.85547,2.23828 -1.875,5.10156 -2.83203,7.85547 1.20703,-2.91407 2.16016,-5.71094 2.83203,-7.85547 m -13.3125,26.42187 c -0.48437,0.79688 -0.88281,1.53906 -1.26953,2.38281 0.41406,-0.62109 0.87891,-1.42187 1.26953,-2.38281 m -2.23047,4.26172 c -0.0508,0 -0.10156,-0.0156 -0.14453,-0.043 -0.0977,-0.0664 -0.13672,-0.1914 -0.0937,-0.30469 0.92578,-2.37109 1.65235,-3.67187 3.07813,-5.79687 0.20312,-0.85156 0.32422,-1.78516 0.32031,-2.78125 -0.008,-1.54688 -0.0508,-2.86719 -0.082,-3.92578 -0.0937,-2.78125 -0.13281,-4.05078 0.60547,-4.50391 0.1875,-0.11328 0.38672,-0.125 0.57031,-0.0352 0.21875,0.10937 0.39453,0.38281 0.53906,0.72656 0.0859,-1.64844 0.36719,-3.7461 1.20703,-4.70703 0.20313,-0.23438 0.51563,-0.35157 0.82422,-0.3125 0.32032,0.043 0.59766,0.23828 0.74219,0.53125 0.19922,0.40625 0.34766,0.93359 0.43359,1.57031 0.0781,-0.47266 0.13282,-1.11719 0.10938,-1.96484 -0.0508,-1.72266 0.0195,-8.35938 1.23047,-9.32032 0.14453,-0.11328 0.3125,-0.14062 0.46875,-0.0742 0.60937,0.25391 1.14062,2.47266 1.58203,6.58594 0.48437,-0.79297 1.11328,-2.26172 0.67187,-4.04687 -1.25781,-5.08985 -1.8125,-8.32813 -0.67968,-8.73828 0.91797,-0.33594 1.83984,0.97265 2.47265,2.18359 -0.0156,-0.375 -0.0859,-0.99609 -0.46875,-1.76563 -0.8164,-1.64453 -0.73047,-3.67187 -0.35937,-4.44921 0.35547,-0.74219 1.97656,-4.64454 1.96094,-5.16407 -0.004,-0.13281 -0.0352,-0.28906 -0.0703,-0.45703 -0.0781,-0.35937 -0.16406,-0.76953 0.0547,-1.08594 0.13672,-0.19531 0.36328,-0.3164 0.69141,-0.36718 1.1914,-0.1836 2.78906,0.0703 4.52734,3.67968 1.60156,3.32032 0.27344,6.86719 -1.37109,10.04688 0.60547,-0.66406 1.36328,-1.66016 1.98828,-3.00781 0.043,-0.0898 0.1289,-0.14844 0.23047,-0.14844 0.10937,-0.004 0.1875,0.0547 0.23047,0.14062 0.0391,0.0859 1,2.0625 0.89062,5.39454 -0.0977,3.05468 -1.16797,7.87109 -5.68359,13.47265 -0.125,0.16016 -0.16797,0.36719 -0.10938,0.5625 0.0547,0.17969 0.1836,0.3125 0.35547,0.36719 0.043,0.0117 0.0859,0.0234 0.13281,0.0352 0.1875,0.043 0.33594,0.1875 0.38282,0.375 0.0508,0.1914 -0.0117,0.39062 -0.15625,0.51953 -0.51172,0.45312 -1.58594,1.28906 -3.27735,2.00781 0.23047,0.0625 0.41797,0.22656 0.5,0.44922 0.0898,0.22265 0.0586,0.47656 -0.0742,0.67578 -0.53906,0.79687 -1.73047,2.16797 -3.66797,2.40625 -1.76171,0.21875 -2.39843,0.51953 -2.60546,0.65234 0.10546,0.11719 0.39843,0.32032 1.07421,0.44532 0.5586,0.10546 0.94922,0.6289 0.87891,1.16406 -0.0391,0.26172 -0.17578,0.48437 -0.39844,0.64453 -0.54297,0.39062 -1.60156,0.42578 -3.23047,0.10937 -0.14062,-0.0273 -0.23046,-0.16015 -0.20312,-0.29687 0.0273,-0.14063 0.15625,-0.23047 0.30078,-0.20313 1.82422,0.35157 2.54688,0.17969 2.83594,-0.0234 0.11328,-0.082 0.17187,-0.17578 0.1875,-0.30078 0.0391,-0.26954 -0.17188,-0.53516 -0.46485,-0.59375 -1.44531,-0.26954 -1.53515,-0.88672 -1.53906,-1.00782 0,-0.0391 0.008,-0.0781 0.0273,-0.11328 0.0898,-0.1914 0.5664,-0.67187 3.07812,-0.98047 1.73438,-0.21484 2.8125,-1.46093 3.30469,-2.1875 0.0391,-0.0625 0.0508,-0.13672 0.0234,-0.21093 -0.0273,-0.0664 -0.0859,-0.1211 -0.16016,-0.13672 l -0.49609,-0.1211 c -0.14454,-0.0352 -0.2461,-0.16015 -0.25782,-0.30859 -0.008,-0.14844 0.0781,-0.28516 0.21875,-0.33984 1.89844,-0.73047 3.07422,-1.63672 3.60547,-2.11329 -0.0625,-0.0312 -0.12109,-0.0469 -0.17578,-0.0625 -0.33203,-0.10546 -0.58203,-0.35937 -0.68359,-0.70312 -0.10938,-0.35547 -0.0352,-0.74219 0.19922,-1.03125 7.21484,-8.94922 5.58984,-15.90625 4.93359,-17.80469 -1.00391,1.92578 -2.22266,3.07031 -2.72656,3.4961 -0.1211,0.10156 -0.28516,0.10156 -0.40625,0.004 -0.1211,-0.0977 -0.15235,-0.26562 -0.0781,-0.40234 1.89453,-3.48047 3.60547,-7.16797 1.92969,-10.64844 -1.80078,-3.73437 -3.28125,-3.50781 -3.99609,-3.39844 -0.17579,0.0273 -0.29297,0.0781 -0.34766,0.15625 -0.0937,0.13282 -0.0352,0.41407 0.0234,0.6875 0.0391,0.1836 0.0781,0.36719 0.082,0.55078 0.0234,0.75391 -1.89844,5.16797 -2.00781,5.39844 -0.28125,0.58203 -0.40235,2.46875 0.35546,4 0.46875,0.94531 0.51954,1.70703 0.48047,2.17969 -0.0156,0.20703 -0.16406,0.37109 -0.36718,0.41016 -0.20313,0.043 -0.39844,-0.0547 -0.49219,-0.23829 -0.73047,-1.4375 -1.45703,-2.23046 -1.91016,-2.0664 -0.61719,0.22656 -0.27734,2.96484 1.00391,8.14062 0.51562,2.09375 -0.30469,3.78125 -0.83985,4.60157 -0.10546,0.16015 -0.29296,0.23437 -0.47656,0.1914 -0.1875,-0.0469 -0.32031,-0.19922 -0.33984,-0.38672 -0.4336,-4.13281 -0.97266,-6.1914 -1.28906,-6.35547 -0.73829,0.625 -1.08985,5.60938 -0.9961,8.91407 0.0703,2.57812 -0.54297,3.42578 -0.57031,3.46093 -0.0664,0.0898 -0.17578,0.125 -0.28125,0.0898 -0.10156,-0.0312 -0.17578,-0.12891 -0.17578,-0.23438 -0.0312,-1.48047 -0.27735,-2.27734 -0.48047,-2.68359 -0.0664,-0.14063 -0.19922,-0.23438 -0.35156,-0.25391 -0.14063,-0.0156 -0.28125,0.0352 -0.375,0.14453 -1.32032,1.51563 -1.10157,6.57422 -1.09766,6.62891 0.004,0.13672 -0.10156,0.25391 -0.23828,0.26563 -0.12891,0.004 -0.25781,-0.0898 -0.27344,-0.23047 -0.11328,-1.10938 -0.43359,-2.40625 -0.75,-2.5625 -0.0117,-0.008 -0.0273,-0.0156 -0.0742,0.0117 -0.48437,0.29687 -0.4414,1.71093 -0.36328,4.05468 0.0352,1.0625 0.0781,2.38282 0.0859,3.9375 0,0.60157 -0.0391,1.17578 -0.11328,1.72657 0.27344,-0.40235 0.57031,-0.83204 0.89453,-1.30469 0.92578,-1.33985 2.07422,-3.00391 3.53516,-5.19141 0.91406,-1.36328 1.76562,-2.85156 2.54687,-4.38672 1.94141,-5.70312 5.11719,-14.84375 6.19922,-16.69922 0.0625,-0.10937 0.19922,-0.15625 0.31641,-0.10937 0.11718,0.0469 0.17968,0.17578 0.15234,0.29687 -0.0273,0.10938 -2.26172,8.96875 -6.19141,16.69532 -0.89843,2.64843 -1.53125,4.54687 -1.55078,4.60547 -0.043,0.13281 -0.1875,0.20703 -0.32031,0.16015 -0.13281,-0.043 -0.20703,-0.1875 -0.16406,-0.32031 0.0469,-0.13672 0.27343,-0.8125 0.61718,-1.84375 -0.3789,0.64844 -0.77343,1.28125 -1.17968,1.88672 -1.46485,2.1875 -2.61328,3.85156 -3.53907,5.19531 -0.60156,0.87109 -1.10937,1.60938 -1.55078,2.26563 -0.85937,3.59375 -3.03125,5.76953 -3.14843,5.8789 -0.0469,0.0508 -0.11329,0.0742 -0.17579,0.0742"
       id="path1901"
       inkscape:export-filename="feather.svg"
       inkscape:export-xdpi="96"
       inkscape:export-ydpi="96" />
  </g>
</svg>
